<svg width="24" height="24" viewBox="0 0 24 24" fill="none" xmlns="http://www.w3.org/2000/svg">
<g clip-path="url(#clip0_3315_3401)">
<path d="M19.85 17V17.15H20H21.85V18.85H2.15V17.15H4H4.15V17V10C4.15 7.91805 4.97705 5.92137 6.44921 4.44921C7.92137 2.97705 9.91805 2.15 12 2.15C14.0819 2.15 16.0786 2.97705 17.5508 4.44921C19.0229 5.92137 19.85 7.91805 19.85 10V17ZM18 17.15H18.15V17V10C18.15 8.36892 17.5021 6.80464 16.3487 5.65129C15.1954 4.49794 13.6311 3.85 12 3.85C10.3689 3.85 8.80464 4.49794 7.65129 5.65129C6.49794 6.80464 5.85 8.36892 5.85 10V17V17.15H6H18ZM14.85 21.15V22.85H9.15V21.15H14.85Z" fill="#3B3252" stroke="white" stroke-width="0.3"/>
</g>
<defs>
<clipPath id="clip0_3315_3401">
<rect width="24" height="24" fill="white"/>
</clipPath>
</defs>
</svg>
